<svg role="img" viewBox="0 0 24 24" xmlns="http://www.w3.org/2000/svg" id="Dataiku--Streamline-Simple-Icons" height="24" width="24">
  <desc>
    Dataiku Streamline Icon: https://streamlinehq.com
  </desc>
  <title>Dataiku</title>
  <path d="M12 0a12 12 0 1 0 12 12A12 12 0 0 0 12 0zm6.527 15.34H12.5v-0.934h6.026zm-0.739 -8.73s-0.412 0.543 -0.193 1.995c0.41 2.724 -1.02 5.15 -3.56 5.15h-1.87s-1.835 -0.092 -2.933 1.01c-3.263 3.269 -4.04 4.116 -4.274 4.233 -0.15 0.08 -0.188 -0.093 -0.188 -0.093l9.644 -11.891c-0.203 -2.145 2.34 -2.715 3.278 -1.13l0.884 -0.248zm-1.599 -0.614a0.476 0.476 0 1 0 0.47 0.474 0.476 0.476 0 0 0 -0.47 -0.474z" fill="#000000" stroke-width="1"></path>
</svg>